<svg width="16" height="16" viewBox="0 0 16 16" fill="none" xmlns="http://www.w3.org/2000/svg">
<circle cx="8" cy="4" r="1" fill="#224A58"/>
<path d="M6.7171 6.60855C6.66302 6.58151 6.68226 6.5 6.74273 6.5H7.00072C7.65787 6.5 8.30601 6.347 8.89378 6.05311V6.05311C8.93799 6.03101 8.9886 6.06839 8.98048 6.11714L8.03881 11.7671C8.0185 11.889 8.1125 12 8.23609 12H8.5H8.66972C8.76866 12 8.80752 12.1283 8.72519 12.1832L8.18212 12.5453C7.7855 12.8097 7.25738 12.7574 6.92031 12.4203L6.87843 12.3784C6.64201 12.142 6.53939 11.8031 6.60496 11.4752L7.32834 7.85831C7.42969 7.35156 7.17933 6.83967 6.7171 6.60855V6.60855Z" fill="#224A58"/>
<circle cx="8" cy="8" r="7.5" stroke="#224A58"/>
</svg>
