<svg width="20" height="20" viewBox="0 0 20 20" fill="none" xmlns="http://www.w3.org/2000/svg">
<path d="M1.61612 1.61612C2.10427 1.12796 2.89573 1.12796 3.38388 1.61612L10 8.23223L16.6161 1.61612C17.1043 1.12796 17.8957 1.12796 18.3839 1.61612C18.872 2.10427 18.872 2.89573 18.3839 3.38388L11.7678 10L18.3839 16.6161C18.872 17.1043 18.872 17.8957 18.3839 18.3839C17.8957 18.872 17.1043 18.872 16.6161 18.3839L10 11.7678L3.38388 18.3839C2.89573 18.872 2.10427 18.872 1.61612 18.3839C1.12796 17.8957 1.12796 17.1043 1.61612 16.6161L8.23223 10L1.61612 3.38388C1.12796 2.89573 1.12796 2.10427 1.61612 1.61612Z" fill="black"/>
<path d="M2.68306 3.56694C2.43898 3.32286 2.43898 2.92714 2.68306 2.68306C2.92714 2.43898 3.32287 2.43898 3.56694 2.68306L10 9.11612L16.4331 2.68306C16.6771 2.43898 17.0729 2.43898 17.3169 2.68306C17.561 2.92714 17.561 3.32286 17.3169 3.56694L10.8839 10L17.3169 16.4331C17.561 16.6771 17.561 17.0729 17.3169 17.3169C17.0729 17.561 16.6771 17.561 16.4331 17.3169L10 10.8839L3.56694 17.3169C3.32287 17.561 2.92714 17.561 2.68306 17.3169C2.43898 17.0729 2.43898 16.6771 2.68306 16.4331L9.11612 10L2.68306 3.56694Z" fill="black"/>
<path d="M2.68306 3.56694C2.43898 3.32286 2.43898 2.92714 2.68306 2.68306C2.92714 2.43898 3.32287 2.43898 3.56694 2.68306L10 9.11612L16.4331 2.68306C16.6771 2.43898 17.0729 2.43898 17.3169 2.68306C17.561 2.92714 17.561 3.32286 17.3169 3.56694L10.8839 10L17.3169 16.4331C17.561 16.6771 17.561 17.0729 17.3169 17.3169C17.0729 17.561 16.6771 17.561 16.4331 17.3169L10 10.8839L3.56694 17.3169C3.32287 17.561 2.92714 17.561 2.68306 17.3169C2.43898 17.0729 2.43898 16.6771 2.68306 16.4331L9.11612 10L2.68306 3.56694Z" fill="black" fill-opacity="0.2"/>
</svg>
