<svg width="18" height="18" viewBox="0 0 18 18" fill="none" xmlns="http://www.w3.org/2000/svg">
<path d="M7.22681 1.11967C7.98412 -0.373223 10.0159 -0.373223 10.7732 1.11967L17.7625 14.8848C17.9263 15.2073 18.0079 15.569 17.9994 15.9347C17.9909 16.3003 17.8926 16.6574 17.714 16.9711C17.5354 17.2848 17.2827 17.5445 16.9804 17.7248C16.6782 17.9051 16.3367 17.9999 15.9893 18H2.01068C1.66327 17.9999 1.3218 17.9051 1.01955 17.7248C0.717298 17.5445 0.464572 17.2848 0.286 16.9711C0.107429 16.6574 0.00910215 16.3003 0.000602143 15.9347C-0.00789787 15.569 0.0737187 15.2073 0.237498 14.8848L7.22681 1.11967ZM9.25282 1.975C9.2282 1.92698 9.19171 1.88687 9.1472 1.85892C9.10269 1.83096 9.05183 1.8162 9 1.8162C8.94817 1.8162 8.89731 1.83096 8.8528 1.85892C8.80829 1.88687 8.7718 1.92698 8.74718 1.975L1.75786 15.7401C1.73445 15.7861 1.72276 15.8378 1.72393 15.89C1.7251 15.9422 1.7391 15.9932 1.76455 16.038C1.79001 16.0829 1.82606 16.12 1.86919 16.1458C1.91233 16.1716 1.96107 16.1852 2.01068 16.1853H15.9893C16.0389 16.1852 16.0877 16.1716 16.1308 16.1458C16.1739 16.12 16.21 16.0829 16.2354 16.038C16.2609 15.9932 16.2749 15.9422 16.2761 15.89C16.2772 15.8378 16.2656 15.7861 16.2421 15.7401L9.25282 1.975ZM9.86189 6.80936V9.83385C9.86189 10.0745 9.77108 10.3053 9.60944 10.4754C9.44781 10.6456 9.22859 10.7412 9 10.7412C8.77141 10.7412 8.55219 10.6456 8.39056 10.4754C8.22892 10.3053 8.13811 10.0745 8.13811 9.83385V6.80936C8.13811 6.56871 8.22892 6.33792 8.39056 6.16776C8.55219 5.9976 8.77141 5.90201 9 5.90201C9.22859 5.90201 9.44781 5.9976 9.60944 6.16776C9.77108 6.33792 9.86189 6.56871 9.86189 6.80936ZM10.1492 13.1608C10.1492 13.4817 10.0281 13.7894 9.81259 14.0163C9.59708 14.2431 9.30478 14.3706 9 14.3706C8.69522 14.3706 8.40292 14.2431 8.18741 14.0163C7.97189 13.7894 7.85082 13.4817 7.85082 13.1608C7.85082 12.8399 7.97189 12.5322 8.18741 12.3053C8.40292 12.0785 8.69522 11.951 9 11.951C9.30478 11.951 9.59708 12.0785 9.81259 12.3053C10.0281 12.5322 10.1492 12.8399 10.1492 13.1608Z" fill="#6F3331"/>
</svg>
