<svg width="23" height="23" viewBox="0 0 23 23" fill="none" xmlns="http://www.w3.org/2000/svg">
<path fill-rule="evenodd" clip-rule="evenodd" d="M12.0082 2.36677C12.2889 2.64746 12.2889 3.10254 12.0082 3.38323L3.89147 11.5L12.0082 19.6168C12.2889 19.8975 12.2889 20.3525 12.0082 20.6332C11.7275 20.9139 11.2725 20.9139 10.9918 20.6332L2.36677 12.0082C2.08608 11.7275 2.08608 11.2725 2.36677 10.9918L10.9918 2.36677C11.2725 2.08608 11.7275 2.08608 12.0082 2.36677Z" fill="black"/>
<path fill-rule="evenodd" clip-rule="evenodd" d="M17.7582 2.36677C18.0389 2.64746 18.0389 3.10254 17.7582 3.38323L9.64147 11.5L17.7582 19.6168C18.0389 19.8975 18.0389 20.3525 17.7582 20.6332C17.4775 20.9139 17.0225 20.9139 16.7418 20.6332L8.11677 12.0082C7.83608 11.7275 7.83608 11.2725 8.11677 10.9918L16.7418 2.36677C17.0225 2.08608 17.4775 2.08608 17.7582 2.36677Z" fill="black"/>
</svg>
