<svg width="23" height="23" viewBox="0 0 23 23" fill="none" xmlns="http://www.w3.org/2000/svg">
<path fill-rule="evenodd" clip-rule="evenodd" d="M5.24177 2.36677C5.52246 2.08608 5.97754 2.08608 6.25823 2.36677L14.8832 10.9918C15.1639 11.2725 15.1639 11.7275 14.8832 12.0082L6.25823 20.6332C5.97754 20.9139 5.52246 20.9139 5.24177 20.6332C4.96108 20.3525 4.96108 19.8975 5.24177 19.6168L13.3585 11.5L5.24177 3.38323C4.96108 3.10254 4.96108 2.64746 5.24177 2.36677Z" fill="black"/>
<path fill-rule="evenodd" clip-rule="evenodd" d="M10.9918 2.36677C11.2725 2.08608 11.7275 2.08608 12.0082 2.36677L20.6332 10.9918C20.9139 11.2725 20.9139 11.7275 20.6332 12.0082L12.0082 20.6332C11.7275 20.9139 11.2725 20.9139 10.9918 20.6332C10.7111 20.3525 10.7111 19.8975 10.9918 19.6168L19.1085 11.5L10.9918 3.38323C10.7111 3.10254 10.7111 2.64746 10.9918 2.36677Z" fill="black"/>
</svg>
